<svg width="24" height="24" viewBox="0 0 24 24" fill="none" xmlns="http://www.w3.org/2000/svg">
<path fill-rule="evenodd" clip-rule="evenodd" d="M4.79965 22.35C4.39282 22.3502 3.98995 22.2702 3.61405 22.1146C3.23816 21.959 2.89661 21.7309 2.60895 21.4432C2.32128 21.1555 2.09312 20.814 1.93753 20.4381C1.78194 20.0622 1.70195 19.6593 1.70215 19.2525V4.85251C1.70195 4.44568 1.78194 4.04281 1.93753 3.66691C2.09312 3.29102 2.32128 2.94947 2.60895 2.6618C2.89661 2.37413 3.23816 2.14598 3.61405 1.99039C3.98995 1.83479 4.39282 1.75481 4.79965 1.75501H19.1996C19.6065 1.75481 20.0093 1.83479 20.3852 1.99039C20.7611 2.14598 21.1027 2.37413 21.3904 2.6618C21.678 2.94947 21.9062 3.29102 22.0618 3.66691C22.2174 4.04281 22.2973 4.44568 22.2971 4.85251V19.2525C22.2973 19.6593 22.2174 20.0622 22.0618 20.4381C21.9062 20.814 21.678 21.1555 21.3904 21.4432C21.1027 21.7309 20.7611 21.959 20.3852 22.1146C20.0093 22.2702 19.6065 22.3502 19.1996 22.35H4.79965ZM17.3846 13.65H15.2097V20.85H19.2146C19.4246 20.85 19.6326 20.8086 19.8266 20.7283C20.0206 20.6479 20.1968 20.5301 20.3453 20.3817C20.4938 20.2332 20.6116 20.0569 20.6919 19.8629C20.7723 19.6689 20.8137 19.461 20.8137 19.251V4.85101C20.8137 4.42692 20.6452 4.02021 20.3453 3.72034C20.0454 3.42047 19.6387 3.25201 19.2146 3.25201H4.81465C4.39057 3.25201 3.98386 3.42047 3.68399 3.72034C3.38411 4.02021 3.21565 4.42692 3.21565 4.85101V19.251C3.21565 19.6751 3.38411 20.0818 3.68399 20.3817C3.98386 20.6815 4.39057 20.85 4.81465 20.85H12.8096V13.65H10.4096V11.25H12.8096V9.9615C12.8096 7.51651 13.9992 6.45151 16.0196 6.45151C16.9721 6.45151 17.4836 6.52051 17.7296 6.55501H17.7446V8.85001H16.3616C15.6641 8.85001 15.3341 9.15001 15.2351 9.75001C15.2111 9.90734 15.1995 10.0663 15.2006 10.2255V11.25H17.7206L17.3787 13.65H17.3846Z" fill="#273880"/>
</svg>
