<svg width="24" height="24" viewBox="0 0 24 24" fill="none" xmlns="http://www.w3.org/2000/svg">
<path d="M17.3402 5.46C17.1029 5.46 16.8709 5.53038 16.6736 5.66224C16.4762 5.79409 16.3224 5.98151 16.2316 6.20078C16.1408 6.42005 16.117 6.66133 16.1633 6.89411C16.2096 7.12689 16.3239 7.34071 16.4917 7.50853C16.6595 7.67635 16.8734 7.79064 17.1061 7.83694C17.3389 7.88324 17.5802 7.85948 17.7995 7.76866C18.0187 7.67783 18.2062 7.52402 18.338 7.32668C18.4699 7.12935 18.5402 6.89734 18.5402 6.66C18.5402 6.34174 18.4138 6.03652 18.1888 5.81147C17.9637 5.58643 17.6585 5.46 17.3402 5.46ZM21.9402 7.88C21.9206 7.05032 21.7652 6.22945 21.4802 5.45C21.2271 4.78255 20.8312 4.17846 20.3202 3.68C19.8251 3.16743 19.2198 2.77418 18.5502 2.53C17.7729 2.23616 16.9511 2.07721 16.1202 2.06C15.0602 2 14.7202 2 12.0002 2C9.28024 2 8.94024 2 7.88024 2.06C7.0494 2.07721 6.22759 2.23616 5.45024 2.53C4.78222 2.77725 4.17761 3.17008 3.68024 3.68C3.16767 4.17518 2.77442 4.78044 2.53024 5.45C2.2364 6.22734 2.07745 7.04915 2.06024 7.88C2.00024 8.94 2.00024 9.28 2.00024 12C2.00024 14.72 2.00024 15.06 2.06024 16.12C2.07745 16.9508 2.2364 17.7727 2.53024 18.55C2.77442 19.2196 3.16767 19.8248 3.68024 20.32C4.17761 20.8299 4.78222 21.2227 5.45024 21.47C6.22759 21.7638 7.0494 21.9228 7.88024 21.94C8.94024 22 9.28024 22 12.0002 22C14.7202 22 15.0602 22 16.1202 21.94C16.9511 21.9228 17.7729 21.7638 18.5502 21.47C19.2198 21.2258 19.8251 20.8326 20.3202 20.32C20.8325 19.8226 21.2286 19.2182 21.4802 18.55C21.7652 17.7705 21.9206 16.9497 21.9402 16.12C21.9402 15.06 22.0002 14.72 22.0002 12C22.0002 9.28 22.0002 8.94 21.9402 7.88ZM20.1402 16C20.1332 16.6348 20.0182 17.2638 19.8002 17.86C19.6406 18.2952 19.3841 18.6884 19.0502 19.01C18.7257 19.3403 18.3333 19.5961 17.9002 19.76C17.304 19.9779 16.675 20.0929 16.0402 20.1C15.0402 20.15 14.6702 20.16 12.0402 20.16C9.41024 20.16 9.04024 20.16 8.04024 20.1C7.38109 20.1129 6.7247 20.0114 6.10024 19.8C5.68643 19.6273 5.31215 19.3721 5.00024 19.05C4.66833 18.7287 4.41509 18.3352 4.26024 17.9C4.01529 17.2954 3.87985 16.652 3.86024 16C3.86024 15 3.80024 14.63 3.80024 12C3.80024 9.37 3.80024 9 3.86024 8C3.86389 7.35098 3.98239 6.70772 4.21024 6.1C4.38629 5.67791 4.65651 5.30166 5.00024 5C5.30317 4.65519 5.67888 4.38195 6.10024 4.2C6.70964 3.97948 7.35219 3.8645 8.00024 3.86C9.00024 3.86 9.37024 3.8 12.0002 3.8C14.6302 3.8 15.0002 3.8 16.0002 3.86C16.635 3.86709 17.264 3.98206 17.8602 4.2C18.3147 4.36865 18.7225 4.64285 19.0502 5C19.377 5.30802 19.6329 5.68334 19.8002 6.1C20.0227 6.70888 20.1377 7.35176 20.1402 8C20.1902 9 20.2002 9.37 20.2002 12C20.2002 14.63 20.1902 15 20.1402 16ZM12.0002 6.87C10.9861 6.87198 9.99521 7.17453 9.1529 7.73942C8.31059 8.30431 7.65462 9.1062 7.26788 10.0438C6.88113 10.9813 6.78097 12.0125 6.98004 13.0069C7.17911 14.0014 7.66848 14.9145 8.38632 15.631C9.10416 16.3474 10.0183 16.835 11.0131 17.0321C12.008 17.2293 13.0389 17.1271 13.9757 16.7385C14.9125 16.35 15.7131 15.6924 16.2764 14.849C16.8396 14.0056 17.1402 13.0142 17.1402 12C17.1416 11.3251 17.0094 10.6566 16.7515 10.033C16.4935 9.40931 16.1148 8.84281 15.6371 8.36605C15.1594 7.88929 14.5922 7.51168 13.968 7.25493C13.3439 6.99818 12.6751 6.86736 12.0002 6.87ZM12.0002 15.33C11.3416 15.33 10.6978 15.1347 10.1502 14.7688C9.60258 14.4029 9.17577 13.8828 8.92373 13.2743C8.67169 12.6659 8.60574 11.9963 8.73423 11.3503C8.86272 10.7044 9.17987 10.111 9.64558 9.64533C10.1113 9.17963 10.7046 8.86247 11.3506 8.73398C11.9966 8.6055 12.6661 8.67144 13.2746 8.92348C13.8831 9.17552 14.4031 9.60234 14.769 10.15C15.1349 10.6976 15.3302 11.3414 15.3302 12C15.3302 12.4373 15.2441 12.8703 15.0768 13.2743C14.9094 13.6784 14.6641 14.0454 14.3549 14.3547C14.0457 14.6639 13.6786 14.9092 13.2746 15.0765C12.8706 15.2439 12.4375 15.33 12.0002 15.33Z" fill="#273880"/>
</svg>
