<?xml version="1.0" encoding="UTF-8"?>
<svg width="1200pt" height="1200pt" version="1.1" viewBox="0 0 1200 1200" xmlns="http://www.w3.org/2000/svg">
 <g>
  <path d="m600 1133.3c-141.45 0-277.11-56.188-377.12-156.21s-156.21-235.68-156.21-377.12 56.188-277.11 156.21-377.12 235.68-156.21 377.12-156.21 277.11 56.188 377.12 156.21 156.21 235.68 156.21 377.12c0 93.621-24.641 185.59-71.453 266.67-46.809 81.074-114.14 148.4-195.21 195.21-81.078 46.812-173.05 71.453-266.67 71.453zm0-1e3c-123.77 0-242.46 49.168-329.98 136.68-87.516 87.52-136.68 206.21-136.68 329.98s49.168 242.46 136.68 329.98c87.52 87.516 206.21 136.68 329.98 136.68s242.46-49.168 329.98-136.68c87.516-87.52 136.68-206.21 136.68-329.98 0-81.918-21.562-162.39-62.523-233.33-40.957-70.945-99.867-129.86-170.81-170.81-70.941-40.961-151.41-62.523-233.33-62.523z"/>
  <path d="m733.33 766.67h-266.66c-11.91 0-22.914 6.3516-28.867 16.664-5.957 10.316-5.957 23.02 0 33.336 5.9531 10.312 16.957 16.664 28.867 16.664h266.67-0.003907c11.91 0 22.914-6.3516 28.867-16.664 5.957-10.316 5.957-23.02 0-33.336-5.9531-10.312-16.957-16.664-28.867-16.664z"/>
  <path d="m833.33 466.67c0 36.816-29.848 66.664-66.664 66.664-36.82 0-66.668-29.848-66.668-66.664 0-36.82 29.848-66.668 66.668-66.668 36.816 0 66.664 29.848 66.664 66.668"/>
  <path d="m500 466.67c0 36.816-29.848 66.664-66.668 66.664-36.816 0-66.664-29.848-66.664-66.664 0-36.82 29.848-66.668 66.664-66.668 36.82 0 66.668 29.848 66.668 66.668"/>
 </g>
</svg>
