<svg width="20" height="20" viewBox="0 0 20 20" fill="none" xmlns="http://www.w3.org/2000/svg">
<path d="M11.6665 11.6667L13.7498 13.75" stroke="#343434" stroke-width="1.5" stroke-linejoin="round"/>
<path d="M13.6946 15.4377C13.2131 14.9563 13.2131 14.1758 13.6946 13.6944C14.1759 13.213 14.9564 13.213 15.4378 13.6944L17.9724 16.229C18.4538 16.7104 18.4538 17.4909 17.9724 17.9723C17.4911 18.4537 16.7106 18.4537 16.2291 17.9723L13.6946 15.4377Z" stroke="#343434" stroke-width="1.5" stroke-linecap="round"/>
<path d="M13.3332 7.50002C13.3332 4.27836 10.7215 1.66669 7.49984 1.66669C4.27818 1.66669 1.6665 4.27836 1.6665 7.50002C1.6665 10.7217 4.27818 13.3334 7.49984 13.3334C10.7215 13.3334 13.3332 10.7217 13.3332 7.50002Z" stroke="#343434" stroke-width="1.5" stroke-linejoin="round"/>
</svg>
