<?xml version="1.0" encoding="utf-8"?>
<svg viewBox="11505.356 755 28.429 28.429" xmlns="http://www.w3.org/2000/svg" xmlns:bx="https://boxy-svg.com">
  <defs>
    <style>.a{fill:#00a1e1;}</style>
  </defs>
  <g transform="matrix(1, 0, 0, 1, 11505.356445, 755)">
    <path class="a" d="M616.914,0a14.214,14.214,0,1,0,14.214,14.214A14.228,14.228,0,0,0,616.914,0Zm0,26.892a12.679,12.679,0,1,1,12.678-12.678,12.635,12.635,0,0,1-12.678,12.678Zm0,0" transform="translate(-602.7)"/>
    <path class="a" d="M672.673,80.737a1.537,1.537,0,1,1-1.537-1.537,1.532,1.532,0,0,1,1.537,1.537Zm0,0" transform="translate(-661.568 -69.692)"/>
    <path class="a" d="M751.873,80.737a1.537,1.537,0,1,1-1.537-1.537,1.532,1.532,0,0,1,1.537,1.537Zm0,0" transform="translate(-731.26 -69.692)"/>
  </g>
  <path transform="matrix(0.000099, 0.048621, -0.05995, -0.000027, 11555.709961, 756.765747)" style="fill: rgb(0, 161, 225);" d="M 319.5 463.5 A 139.5 139.5 0 1 1 319.5 742.5 L 319.5 463.5 Z" bx:shape="crescent 319.5 603 139.5 180 0.5 1@ebc61aa5"/>
</svg>