<?xml version="1.0" encoding="utf-8"?>
<svg viewBox="11433 755 28.429 28.429" xmlns="http://www.w3.org/2000/svg" xmlns:bx="https://boxy-svg.com">
  <defs>
    <style>.a{fill:#00a1e1;}</style>
  </defs>
  <g transform="matrix(1, 0, 0, 1, 11433, 755)">
    <path class="a" d="M14.214,0A14.214,14.214,0,1,0,28.429,14.214,14.228,14.228,0,0,0,14.214,0Zm0,26.892A12.679,12.679,0,1,1,26.892,14.214,12.635,12.635,0,0,1,14.214,26.892Zm0,0"/>
    <path class="a" d="M69.973,80.737A1.537,1.537,0,1,1,68.437,79.2a1.532,1.532,0,0,1,1.537,1.537Zm0,0" transform="translate(-58.868 -69.692)"/>
    <path class="a" d="M149.173,80.737a1.537,1.537,0,1,1-1.537-1.537,1.532,1.532,0,0,1,1.537,1.537Zm0,0" transform="translate(-128.56 -69.692)"/>
    <path transform="matrix(0.000325, -0.04862, 0.059948, 0.000549, -21.98093, 37.520191)" style="fill: rgb(0, 161, 225);" d="M 319.5 463.5 A 139.5 139.5 0 1 1 319.5 742.5 L 319.5 463.5 Z" bx:shape="crescent 319.5 603 139.5 180 0.5 1@ebc61aa5"/>
  </g>
</svg>